[Header]
FileType HTR
DataType HTRS
FileVersion 1
NumSegments 22
NumFrames 4
DataFrameRate 24
EulerRotationOrder ZYX
CalibrationUnits mm
RotationUnits Degrees
GlobalAxisofGravity Y
BoneLengthAxis Y
ScaleFactor 1.0
[SegmentNames&Hierarchy]
reference	GLOBAL
Hips	reference
Spine	Hips
Spine1	Spine
Neck	Spine1
Head	Neck
LeftShoulder	Spine1
LeftArm	LeftShoulder
LeftForeArm	LeftArm
LeftHand	LeftForeArm
RightShoulder	Spine1
RightArm	RightShoulder
RightForeArm	RightArm
RightHand	RightForeArm
LeftUpLeg	Hips
LeftLeg	LeftUpLeg
LeftFoot	LeftLeg
LeftToeBase	LeftFoot
RightUpLeg	Hips
RightLeg	RightUpLeg
RightFoot	RightLeg
RightToeBase	RightFoot
[BasePosition]
reference	0	0	0	0	0	0	1
Hips	0	0	0	0	0	0	1
Spine	0	0	0	-0	-90	0	1
Spine1	0	0	0	0	0	0	1
Neck	0	0	0	82.64767223	-82.64767223	-90	1
Head	0	0	0	-0	-90	0	1
LeftShoulder	0	0	0	0	0	0	1
LeftArm	0	0	0	0	0	0	1
LeftForeArm	0	0	0	0	0	0	1
LeftHand	0	0	0	0	0	0	1
RightShoulder	0	0	0	0	-0	180	1
RightArm	0	0	0	0	-0	180	1
RightForeArm	0	0	0	0	-0	180	1
RightHand	0	0	0	0	-0	180	1
LeftUpLeg	0	0	0	-0	90	0	1
LeftLeg	0	0	0	-0	90	0	1
LeftFoot	0	0	0	-23.42853957	23.42853957	-90	1
LeftToeBase	0	0	0	0	-0	-90	1
RightUpLeg	0	0	0	-0	90	0	1
RightLeg	0	0	0	-0	90	0	1
RightFoot	0	0	0	-23.42853957	23.42853957	-90	1
RightToeBase	0	0	0	0	-0	-90	1
[reference]
10	0	0	0	0	-0	0	1.0
11	0	0	0	0	-0	0	1.0
12	0	0	0	0	-0	0	1.0
13	0	0	0	0	-0	0	1.0
[Hips]
10	5.112739563	0.1061000004	8.00755024	3.227089405	2.003205299	-130.0986328	1.0
11	5.112739563	0.1061000004	8.00755024	2.787099838	1.756608725	-131.6937561	1.0
12	5.112739563	0.1061000004	8.00755024	2.915327072	0.669963479	-132.3055725	1.0
13	5.112739563	0.1061000004	8.00755024	1.908052087	-0.62086761	-134.3587036	1.0
[Spine]
10	0	0	0.7457100153	69.40159607	82.82118988	73.23013306	1.0
11	0	0	0.7457100153	71.3491745	83.12036133	75.37480164	1.0
12	0	0	0.7457100153	78.63612366	83.74256897	83.33352661	1.0
13	0	0	0.7457100153	85.80079651	84.06588745	90.25219727	1.0
[Spine1]
10	0	0	2.140589952	8.144350052	-0.5805443525	2.228212357	1.0
11	0	0	2.140589952	8.483467102	-0.563996911	2.147561073	1.0
12	0	0	2.140589952	9.191331863	0.073107481	2.071470737	1.0
13	0	0	2.140589952	9.888804436	0.9621602893	2.062034845	1.0
[Neck]
10	0	0	2.32246995	88.27791595	82.10881042	113.1714783	1.0
11	0	0	2.32246995	89.21697998	81.90838623	112.8088074	1.0
12	0	0	2.32246995	82.48452759	81.85292053	106.0110168	1.0
13	0	0	2.32246995	76.85453796	81.55175781	99.21777344	1.0
[Head]
10	0	-0.1818799973	1.409579992	-202.965744	87.82466888	-199.9429779	1.0
11	0	-0.1818799973	1.409579992	-232.0104065	89.22348022	-227.5222778	1.0
12	0	-0.1818799973	1.409579992	-245.0819702	88.9945755	-240.6671295	1.0
13	0	-0.1818799973	1.409579992	-247.4845886	88.56198883	-242.8744049	1.0
[LeftShoulder]
10	0.3668199778	0.02662999928	1.946700096	-9.375003815	0.8297476768	-10.80864906	1.0
11	0.3668199778	0.02662999928	1.946700096	-9.865451813	0.931791544	-10.9444294	1.0
12	0.3668199778	0.02662999928	1.946700096	-10.43358898	0.6675525308	-11.07532501	1.0
13	0.3668199778	0.02662999928	1.946700096	-11.61764336	1.103572488	-11.78010845	1.0
[LeftArm]
10	1.140689969	0	0	74.7062912	61.39123535	54.25914383	1.0
11	1.140689969	0	0	76.45681	62.88143921	53.23344421	1.0
12	1.140689969	0	0	77.798172	63.43893814	51.82621002	1.0
13	1.140689969	0	0	81.6236496	64.49573517	47.61067581	1.0
[LeftForeArm]
10	2.749800205	0	0	-11.38256359	4.154186249	-5.823954582	1.0
11	2.749800205	0	0	-13.51432514	4.029463768	-9.099788666	1.0
12	2.749800205	0	0	-13.77697945	4.140726089	-11.29388237	1.0
13	2.749800205	0	0	-14.32112217	2.316694736	-15.72606087	1.0
[LeftHand]
10	2.295179844	0	0	-11.17371655	-1.265581369	0.1179176271	1.0
11	2.295179844	0	0	-13.18938446	-0.2901770771	-1.190836906	1.0
12	2.295179844	0	0	-13.36881828	0.5063070655	-1.835632563	1.0
13	2.295179844	0	0	-14.08798122	2.296049356	-4.332433224	1.0
[RightShoulder]
10	-0.3601199985	0.02662999928	1.946700096	-6.379001141	6.240833282	-174.4874878	1.0
11	-0.3601199985	0.02662999928	1.946700096	-6.057631969	6.406186581	-174.4258575	1.0
12	-0.3601199985	0.02662999928	1.946700096	-6.170682907	5.747467995	-174.2557068	1.0
13	-0.3601199985	0.02662999928	1.946700096	-6.14248085	5.73736763	-174.3680573	1.0
[RightArm]
10	-1.140689969	0	0	-8.079296112	-83.0466156	-104.0892792	1.0
11	-1.140689969	0	0	-5.784595013	-83.32736206	-107.1744385	1.0
12	-1.140689969	0	0	-0.8493275642	-83.21611023	-113.7361679	1.0
13	-1.140689969	0	0	10.49307823	-83.04508972	-127.2762985	1.0
[RightForeArm]
10	-2.749800205	0	0	0.487960577	6.73271656	-160.0463562	1.0
11	-2.749800205	0	0	-1.247480392	4.531795502	-164.9953003	1.0
12	-2.749800205	0	0	-0.9749876261	3.362130642	-167.2266541	1.0
13	-2.749800205	0	0	-0.1110757217	1.644029856	-170.1601563	1.0
[RightHand]
10	-2.295179844	0	0	0.05550174415	8.547158241	-169.8230591	1.0
11	-2.295179844	0	0	-1.331019163	7.034361362	-171.7984619	1.0
12	-2.295179844	0	0	-1.008563995	5.257246971	-172.5504608	1.0
13	-2.295179844	0	0	-0.009646356106	4.694126129	-174.0789032	1.0
[LeftUpLeg]
10	0.9094099998	0	0	-97.79998779	-92.48188782	74.45547485	1.0
11	0.9094099998	0	0	-138.8637695	-92.27290344	116.7546768	1.0
12	0.9094099998	0	0	-130.9320374	-94.81103516	108.3860016	1.0
13	0.9094099998	0	0	-135.4130096	-96.39864349	114.1840057	1.0
[LeftLeg]
10	0	0	-4.498080254	82.39910126	-73.88722229	-47.97874451	1.0
11	0	0	-4.498080254	88.0688858	-74.50457001	-49.99017334	1.0
12	0	0	-4.498080254	83.8067627	-68.17327881	-42.87463379	1.0
13	0	0	-4.498080254	81.88708496	-57.57453537	-37.04011154	1.0
[LeftFoot]
10	0	0	-3.729400158	-62.65935135	-6.792714119	115.2471924	1.0
11	0	0	-3.729400158	-65.71369934	-7.306566238	115.7384644	1.0
12	0	0	-3.729400158	-66.94495392	-2.558839321	122.3798676	1.0
13	0	0	-3.729400158	-69.54750061	3.717559338	131.3488617	1.0
[LeftToeBase]
10	0	-1.364109993	-0.5911099911	0	-1.999999995e-006	0	1.0
11	0	-1.364109993	-0.5911099911	0	-1.999999995e-006	0	1.0
12	0	-1.364109993	-0.5911099911	0	-1.999999995e-006	0	1.0
13	0	-1.364109993	-0.5911099911	0	-1.999999995e-006	0	1.0
[RightUpLeg]
10	-0.9094099998	0	0	-80.10070801	-104.7065735	90.67118835	1.0
11	-0.9094099998	0	0	-87.79032898	-107.3359909	95.26097107	1.0
12	-0.9094099998	0	0	-94.98408508	-107.3881912	98.7408905	1.0
13	-0.9094099998	0	0	-107.7635803	-105.5647507	103.5634613	1.0
[RightLeg]
10	0	0	-4.498080254	21.50251961	-86.65366364	0.40931198	1.0
11	0	0	-4.498080254	45.57540894	-77.01806641	-14.37178802	1.0
12	0	0	-4.498080254	68.5146637	-55.36294174	-33.52057266	1.0
13	0	0	-4.498080254	45.23027802	-70.9339447	10.08321285	1.0
[RightFoot]
10	0	0	-3.729400158	-62.46782684	-19.95688629	115.0185471	1.0
11	0	0	-3.729400158	-60.98087311	-15.16957283	132.3300018	1.0
12	0	0	-3.729400158	-51.58922195	-4.31187439	160.9466553	1.0
13	0	0	-3.729400158	-40.6798439	-22.47950935	139.8101807	1.0
[RightToeBase]
10	0	-1.364109993	-0.5911099911	0	0	3.99999999e-006	1.0
11	0	-1.364109993	-0.5911099911	0	0	3.99999999e-006	1.0
12	0	-1.364109993	-0.5911099911	0	0	3.99999999e-006	1.0
13	0	-1.364109993	-0.5911099911	0	0	3.99999999e-006	1.0
[EndOfFile]
